<svg width="36.000000" height="33.741241" viewBox="0 0 36 33.7412" fill="none" xmlns="http://www.w3.org/2000/svg" xmlns:xlink="http://www.w3.org/1999/xlink">
	<desc>
			Created with Pixso.
	</desc>
	<defs/>
	<path id="Burger" d="M0.5 33.24L0.5 27.78L35.5 27.78L35.5 33.24L0.5 33.24ZM0.5 19.59L0.5 14.14L35.5 14.14L35.5 19.59L0.5 19.59ZM0.5 5.95L0.5 0.5L35.5 0.5L35.5 5.95L0.5 5.95Z" fill="#FFFFFF" fill-opacity="1.000000" fill-rule="nonzero"/>
	<path id="Burger" d="M0.5 27.78L35.5 27.78L35.5 33.24L0.5 33.24L0.5 27.78ZM0.5 14.14L35.5 14.14L35.5 19.59L0.5 19.59L0.5 14.14ZM0.5 0.5L35.5 0.5L35.5 5.95L0.5 5.95L0.5 0.5Z" stroke="#FFFFFF" stroke-opacity="1.000000" stroke-width="1.000000"/>
</svg>
