<svg width="20.000000" height="19.079346" viewBox="0 0 20 19.0793" fill="none" xmlns="http://www.w3.org/2000/svg" xmlns:xlink="http://www.w3.org/1999/xlink">
	<desc>
			Created with Pixso.
	</desc>
	<defs/>
	<path id="矢量 50" d="M10 0C15.52 0 20 4.27 20 9.53C20 14.8 15.52 19.07 10 19.07C4.48 19.07 0 14.8 0 9.53C0 4.27 4.48 0 10 0ZM10 4.76C7.23 4.76 5 6.9 5 9.53C5 12.17 7.23 14.3 10 14.3C11.82 14.3 13.41 13.38 14.28 11.99L12.57 11.01C12.3 11.44 11.92 11.79 11.46 12.03C11 12.28 10.48 12.4 9.96 12.4C9.43 12.39 8.92 12.25 8.47 12C8.02 11.74 7.64 11.38 7.39 10.95C7.13 10.51 6.99 10.02 7 9.52C7 9.02 7.14 8.53 7.4 8.09C7.67 7.66 8.05 7.3 8.5 7.05C8.96 6.8 9.47 6.67 10 6.67C11.09 6.67 12.05 7.23 12.57 8.06L14.28 7.08C13.84 6.37 13.21 5.79 12.46 5.38C11.71 4.98 10.86 4.76 10 4.76L10 4.76Z" fill="#E4E4E4" fill-opacity="1.000000" fill-rule="evenodd"/>
</svg>
